<svg xmlns="http://www.w3.org/2000/svg" width="56" height="43" fill="none" viewBox="0 0 56 43"><path fill="#bae40e" d="M50.774 3.684c3.22 3.418 4.948 7.254 4.948 13.471 0 10.936-7.676 20.74-18.845 25.585l-2.79-4.305c10.423-5.64 12.46-12.954 13.274-17.566-1.678.868-3.875 1.173-6.028.973-5.64-.523-10.083-5.152-10.083-10.904C31.25 4.897 36.147 0 42.187 0c3.354 0 6.56 1.533 8.587 3.684m-31.25 0c3.22 3.418 4.948 7.254 4.948 13.471 0 10.936-7.676 20.74-18.845 25.585l-2.79-4.305c10.423-5.64 12.46-12.954 13.274-17.566-1.678.868-3.875 1.173-6.028.973C4.444 21.32 0 16.69 0 10.938 0 4.897 4.897 0 10.938 0c3.353 0 6.56 1.533 8.586 3.684"/></svg>